<?xml version="1.0" encoding="UTF-8" standalone="no"?>
<!-- Created with Inkscape (http://www.inkscape.org/) -->

<svg
   width="216.13913"
   height="209.7379"
   viewBox="0 0 216.13913 209.7379"
   version="1.1"
   id="svg1"
   xml:space="preserve"
   xmlns="http://www.w3.org/2000/svg"
   xmlns:svg="http://www.w3.org/2000/svg"><defs
     id="defs1" /><g
     id="layer1"
     transform="translate(-205.79148,-151.5)"><path
       id="path1"
       style="fill:#000000"
       d="m 313.9043,151.5 c -32.25692,0.24487 -64.56644,-0.50666 -96.78321,1.06445 -12.12663,4.2673 -11.10606,18.01231 -11.03243,28.40079 -0.49508,55.71294 -0.20335,111.42949 -0.28202,167.14414 3.69506,6.97064 10.03892,13.79799 18.66667,12.85253 59.14638,0.33376 118.30652,0.5215 177.44697,-0.38103 8.2246,1.0721 15.50179,-3.73754 18.95606,-11.00471 2.02218,-4.00582 0.41746,-9.06483 0.9303,-13.50894 -0.16994,-56.3922 0.4854,-112.79584 -0.69768,-169.17801 -0.0159,-13.26381 -15.04084,-16.2861 -25.59893,-15.04431 -27.1992,-0.4224 -54.40412,-0.30301 -81.60573,-0.34491 z m 95.18359,81.02344 c 11.33684,-0.004 5.97807,19.12434 -3.68542,12.71272 -5.29473,-3.43277 -2.91964,-12.94686 3.68542,-12.71272 z m 0,1.26367 c -11.4868,1.00433 -0.78654,18.69559 4.80664,7.9668 1.45121,-3.38424 -0.81603,-8.08767 -4.80664,-7.9668 z m -2.52734,2 c 5.923,-2.06186 6.10803,6.71177 4.10547,7.125 -1.7448,-6.75844 -3.54081,3.67713 -4.10547,-1.80632 0,-1.77289 0,-3.54579 0,-5.31868 z M 408,236.98047 c -1.32125,5.62995 6.10711,-0.19893 0,0 z m -10.19336,8.26367 c 0,4.67773 0,9.35547 0,14.0332 -7.8425,-1.34994 -19.95905,14.95171 -6.5,13.22266 4.2068,-0.43451 8.06911,-0.52453 6.5,4.81686 -0.86315,2.8 1.95717,9.28348 -1.80632,9.18314 -4.06456,0 -8.12912,0 -12.19368,0 0,13.33333 0,26.66667 0,40 -4.33333,0 -8.66667,0 -13,0 0.30142,-19.5359 -0.84575,-39.16056 1.13003,-58.61837 2.09651,-12.93576 12.99088,-21.91152 25.86997,-22.63749 z M 283.7207,246.5 c 9.56185,4.92283 4.98826,16.06956 -0.45122,22.26388 -6.16984,5.63518 4.72787,3.25444 7.68717,6.00781 11.85632,5.02402 19.01217,18.28805 16.25041,30.93476 -2.73827,18.14736 -26.13831,29.27522 -41.50345,18.51209 -13.33332,-7.45561 -17.61306,-26.79243 -8.3121,-39.01372 8.34662,-13.16452 16.74368,-26.40926 26.32919,-38.70482 z m -55.47851,3 c 6.52148,0 13.04297,0 19.56445,0 0,25.66667 0,51.33333 0,77 -4.33333,0 -8.66667,0 -13,0 0,-21.30404 0,-42.60807 0,-63.91211 -4.64839,-0.19699 -9.29683,-0.39295 -13.94531,-0.58789 2.46105,-4.16622 4.92134,-8.33288 7.38086,-12.5 z m 111.54101,23.00195 c 19.49165,-0.77341 33.94232,22.59518 24.90758,39.7774 -6.15647,13.97586 -23.98479,19.88135 -37.55519,13.32149 -4.78696,-2.53761 -1.1097,6.53641 -2.4173,9.04209 2.60899,9.42684 -15.49159,19.2434 -12.82597,4.83495 0.36699,-16.24172 -1.41668,-32.79158 1.79973,-48.81202 3.73296,-10.57636 14.90328,-18.21911 26.09115,-18.16391 z m 0.125,13.00196 c -12.69287,-0.82581 -20.27689,16.7445 -11.05052,25.47008 8.6491,9.9076 27.73651,2.1031 25.72915,-11.39638 -0.41534,-7.59309 -6.88745,-14.35686 -14.67863,-14.0737 z m -60.80468,0.21289 c -13.51343,-0.13565 -19.22926,19.61787 -7.75216,26.99531 9.39313,7.51923 25.70647,-1.22255 23.19356,-13.51289 0.3577,-8.12147 -7.62205,-14.4738 -15.4414,-13.48242 z" /></g></svg>
