<?xml version="1.0" encoding="UTF-8" standalone="no"?>
<!-- Created with Inkscape (http://www.inkscape.org/) -->

<svg
   width="67.733337mm"
   height="112.86362mm"
   viewBox="0 0 67.733339 112.86362"
   version="1.1"
   id="svg1"
   xmlns="http://www.w3.org/2000/svg"
   xmlns:svg="http://www.w3.org/2000/svg">
  <defs
     id="defs1">
    <clipPath
       clipPathUnits="userSpaceOnUse"
       id="clipPath919">
      <path
         d="M 0,0 H 792 V 612 H 0 Z"
         transform="translate(-202.31791,-250.47951)"
         id="path919" />
    </clipPath>
  </defs>
  <g
     id="layer1"
     transform="translate(-93.927084,-114.56458)">
    <path
       id="path907"
       style="fill:#000000;fill-opacity:1;fill-rule:nonzero;stroke:none;stroke-width:0.352779"
       d="m 93.966383,114.56458 v 68.91506 h 67.694037 v -68.91506 z m 7.780887,7.7037 h 10.05313 v 16.69018 c -4.4044,3.43001 -7.44038,6.56305 -10.05313,12.67482 z m 42.07773,0 h 10.05171 v 29.365 c -2.6137,-6.11177 -5.64731,-9.24481 -10.05171,-12.67482 z m -16.16247,13.69796 c 15.47817,0 25.67138,13.05427 26.21559,25.57 v 14.2397 h -10.10505 v -14.41933 c 0,-15.23869 -22.73405,-30.02236 -37.76483,-13.45095 3.64079,-5.75917 11.85188,-11.93942 21.65429,-11.93942 z m -6.23285,6.82935 c 4.89103,0.0337 9.75023,1.81071 13.33022,5.35287 -10.41172,-5.16325 -22.9595,2.69031 -22.9595,14.53443 v 13.19973 h -10.05313 v -14.36743 c 0.89032,-12.49341 10.34493,-18.78373 19.68241,-18.7196 z m -7.75142,45.74219 c -3.66094,0 -5.35148,2.33592 -5.35148,5.20831 v 10.47557 c 0,2.87242 1.69054,5.20972 5.35148,5.20972 3.65997,0 5.35005,-2.3373 5.35005,-5.20972 v -10.47557 c 0,-2.87239 -1.69008,-5.20831 -5.35005,-5.20831 z m 13.57164,0 c -3.43577,0 -5.12411,2.33592 -5.12411,5.20831 v 10.47557 c 0,3.23841 1.91424,5.20972 4.6736,5.20972 1.63356,0 2.47845,-0.56323 3.51991,-1.80206 l 0.64701,1.51996 h 1.68978 v -10.30575 h -5.71637 v 2.75924 h 2.22454 v 1.97188 c 0,2.02736 -0.5069,2.81538 -1.91436,2.81538 -1.21105,0 -1.63367,-0.84494 -1.63367,-2.14029 v -10.4461 c 0,-1.71789 0.70396,-2.22452 1.54807,-2.22452 1.37967,0 1.99996,0.78767 1.99996,3.82869 h 3.32341 v -1.2954 c 0,-3.04105 -1.74643,-5.57463 -5.23777,-5.57463 z m -33.283517,0.28069 v 20.33081 h 3.491855 v -9.01035 h 3.716412 v 9.01035 h 3.49186 v -20.33081 h -3.49186 v 8.27914 h -3.716412 v -8.27914 z m 45.475537,0 -3.74449,20.33081 h 3.37817 l 0.62034,-4.50516 h 3.8301 l 0.61895,4.50516 h 3.37817 l -3.74449,-20.33081 z m 11.51696,0 v 20.33081 h 3.15362 v -12.70009 h 0.0562 l 4.44902,12.70009 h 3.04135 v -20.33081 h -3.15362 v 11.63064 h -0.0562 l -4.25256,-11.63064 z m -37.28062,2.76065 c 1.40746,0 1.8568,0.73208 1.8568,2.2526 v 10.30575 c 0,1.52049 -0.44934,2.25256 -1.8568,2.25256 -1.40844,0 -1.85963,-0.73207 -1.85963,-2.25256 v -10.30575 c 0,-1.52052 0.45119,-2.2526 1.85963,-2.2526 z m 27.90398,1.29541 h 0.0562 l 1.38101,8.72824 h -2.81677 z m -47.589192,23.36653 v 0.25692 0.25693 h 67.642082 v -0.51369 z m 1.932592,4.10236 c -1.23506,0 -1.998556,0.93194 -1.998556,3.53678 0,2.60487 0.763496,3.548 1.998556,3.548 1.167693,0 1.841366,-0.86455 1.863821,-2.39154 h -0.752266 c -0.01113,1.27997 -0.415432,1.75156 -1.111555,1.75156 -0.875771,0 -1.257518,-0.76349 -1.257518,-2.90802 0,-2.1445 0.381747,-2.90802 1.257518,-2.90802 0.583848,0 0.920682,0.46037 1.021732,1.54945 h 0.741038 c -0.112275,-1.47082 -0.741038,-2.17821 -1.76277,-2.17821 z m 7.2616,0.0899 v 6.89387 h 3.2673 v -0.62875 h -2.52626 v -2.64977 h 1.78522 v -0.63998 h -1.78522 v -2.34661 h 2.41399 v -0.62876 z m 8.53315,0 v 6.89387 h 0.74104 v -3.22238 l 0.97682,-0.0448 1.11157,3.26728 h 0.77471 l -1.15646,-3.41326 c 0.76349,-0.26941 1.10032,-0.92066 1.10032,-1.69539 0,-1.134 -0.77471,-1.78522 -1.88627,-1.78522 z m 8.33387,0 v 0.62876 h 1.41472 v 6.26511 h 0.74103 v -6.26511 h 1.41471 v -0.62876 z m 8.62578,0 v 6.89387 h 0.75228 v -6.89387 z m 6.35775,0 v 6.89387 h 0.74106 v -3.27852 h 1.6617 v -0.63998 h -1.6617 v -2.34661 h 2.2231 v -0.62876 z m 8.0644,0 v 6.89387 h 0.75228 v -6.89387 z m 6.35776,0 v 6.89387 h 3.26731 v -0.62875 h -2.52625 v -2.64977 h 1.78521 v -0.63998 h -1.78521 v -2.34661 h 2.41397 v -0.62876 z m 8.53316,0 v 6.89387 h 1.27998 c 1.44839,0 2.32415,-0.79717 2.32415,-3.44693 0,-2.63853 -0.87576,-3.44694 -2.32415,-3.44694 z m -45.53168,0.62876 h 0.65121 c 1.06665,0 1.41472,0.42666 1.41472,1.20137 0,0.7635 -0.34807,1.19014 -1.41472,1.19014 h -0.65121 z m 46.27271,0 h 0.40421 c 1.0891,0 1.71786,0.46034 1.71786,2.81818 0,2.35786 -0.62876,2.81818 -1.71786,2.81818 h -0.40421 z" />
  </g>
</svg>
