<?xml version="1.0" encoding="UTF-8" standalone="no"?>
<!-- Created with Inkscape (http://www.inkscape.org/) -->

<svg
   width="256"
   height="351.23608"
   viewBox="0 0 256 351.23608"
   version="1.1"
   id="svg1"
   xml:space="preserve"
   xmlns="http://www.w3.org/2000/svg"
   xmlns:svg="http://www.w3.org/2000/svg"><defs
     id="defs1" /><g
     id="layer1"
     transform="translate(-189.21631,-164.56021)"><path
       id="path1"
       style="fill:#000000;stroke-width:1"
       d="m 211.01487,164.56462 c -0.89492,0.0503 -0.89363,0.53024 -0.6259,1.47295 0.32062,1.12884 1.7846,6.44439 3.25321,11.80979 5.57467,20.36623 17.96196,48.69679 29.18905,66.75849 11.65703,18.75335 29.41413,40.45572 41.14874,50.29 9.39026,7.8695 11.14124,3.57802 2.8522,-6.98619 -15.64114,-19.93406 -29.28754,-45.71864 -34.49239,-65.16561 -3.82295,-14.28374 -3.9903,-20.01907 -0.67463,-23.33474 3.23839,-3.23846 4.87995,-3.12709 18.52611,1.26681 20.99835,6.76119 25.79595,7.74437 27.83603,5.70439 3.28503,-3.28505 0.54068,-6.65463 -10.62918,-13.04662 -18.82854,-10.77479 -49.27587,-22.74169 -70.39026,-27.66737 -3.30812,-0.7718 -5.09806,-1.1522 -5.99298,-1.1019 z m 210.89718,0.59593 c -4.23071,0.3853 -19.31554,4.77891 -31.11924,9.18997 -12.56716,4.69638 -40.04078,17.99632 -48.71586,23.5821 -17.86293,11.5018 -43.87738,32.99643 -49.15812,40.61654 -6.36729,9.18804 -3.12862,10.01516 7.34973,1.87772 16.49442,-12.80934 36.49829,-24.50543 51.19701,-29.93112 10.99805,-4.05977 24.57472,-7.40222 30.05106,-7.40222 5.41211,2e-5 10.15694,3.09926 10.15694,6.63389 0,0.94646 -2.20658,8.79079 -4.9023,17.43171 -5.5617,17.82693 -6.74446,23.10921 -5.5882,24.98009 1.43411,2.32045 5.33248,1.39298 7.90817,-1.88147 3.62628,-4.61005 16.29222,-29.97033 21.41204,-42.87281 4.9635,-12.5082 13.47592,-41.16929 12.51441,-42.1307 -0.12012,-0.12013 -0.50126,-0.14872 -1.10564,-0.0936 z m -79.47904,77.85242 c -2.05504,0.4265 0.44547,5.4388 7.4959,15.00305 10.47055,14.20382 19.22449,28.74117 24.36918,40.46287 5.07294,11.55832 10.00702,29.02795 10.00702,35.44436 0,12.2621 -2.65577,13.03317 -23.0199,6.66387 -19.81182,-6.19666 -23.90197,-6.89725 -25.94333,-4.43758 -2.63395,3.17376 0.30808,6.36936 11.81354,12.82922 18.68775,10.49254 38.29271,18.62094 59.86976,24.82643 16.38709,4.71296 16.98294,4.70043 15.95504,-0.31108 -3.24798,-15.8352 -17.57742,-51.33399 -28.41697,-70.39774 -11.56199,-20.33447 -39.53968,-54.31392 -48.55844,-58.97776 -1.69815,-0.87813 -2.88679,-1.24782 -3.5718,-1.10564 z m -92.40946,45.3277 c -0.97799,0.17405 -2.22706,0.86591 -3.7517,2.06512 -7.43054,5.84486 -28.64823,54.91985 -34.3837,79.52776 l -1.81777,7.79574 4.5238,-0.81705 c 15.47735,-2.7919 53.72601,-18.38923 72.55281,-29.58633 29.79841,-17.72231 66.88869,-52.12274 56.19678,-52.12274 -0.91246,2e-5 -5.27591,2.73686 -9.69596,6.08294 -11.56277,8.75323 -27.22673,18.74415 -37.15718,23.70203 -18.5196,9.24602 -40.2403,15.1552 -47.91754,13.03537 -6.44111,-1.77846 -6.60591,-4.96797 -1.16561,-22.37151 5.5194,-17.65697 6.6924,-26.62797 3.50433,-27.31133 -0.26568,-0.057 -0.56227,-0.058 -0.88826,0 z m 63.14171,77.8337 v 108.48817 h 8.5191 l -0.55471,-7.31599 c 3.46735,5.13599 9.50301,7.70577 18.10635,7.70577 5.22272,0 9.40586,-0.71354 12.54814,-2.14383 3.16394,-1.45196 5.49462,-3.47033 6.98993,-6.04919 1.51697,-2.57883 2.50206,-5.56651 2.95714,-8.96884 0.4551,-3.40236 0.68213,-7.66243 0.68213,-12.77676 0,-6.73968 -0.57175,-12.10252 -1.72032,-16.08996 -1.14855,-4.00911 -3.42642,-7.05333 -6.82876,-9.13374 -3.38067,-2.10208 -8.34223,-3.15578 -14.88685,-3.15578 -8.97177,0 -14.73588,2.66708 -17.29305,7.99811 v -58.55796 z m 118.39027,11.37127 c -1.30048,0 -2.4102,0.45879 -3.32819,1.37551 -0.91799,0.91672 -1.37925,2.019 -1.37925,3.31318 0,1.29869 0.46126,2.40773 1.37925,3.32443 0.91799,0.91672 2.02771,1.3755 3.32819,1.3755 1.28696,0 2.3847,-0.45878 3.29819,-1.3755 0.91797,-0.92121 1.37925,-2.03023 1.37925,-3.32443 0,-1.29418 -0.46128,-2.39646 -1.37925,-3.31318 -0.91349,-0.91672 -2.01123,-1.37551 -3.29819,-1.37551 z m -0.008,0.48348 c 1.13848,0 2.10747,0.41076 2.9084,1.23308 0.80099,0.81786 1.19935,1.80827 1.19935,2.97213 10e-6,1.16388 -0.40135,2.15729 -1.20683,2.97963 -0.80101,0.82231 -1.76695,1.23306 -2.90092,1.23306 -1.13847,0 -2.11042,-0.41075 -2.9159,-1.23306 -0.8055,-0.82234 -1.21059,-1.81575 -1.21059,-2.97963 0,-1.16386 0.40509,-2.15427 1.21059,-2.97213 0.80548,-0.82232 1.77743,-1.23308 2.9159,-1.23308 z m -2.10635,1.53668 v 5.25086 h 0.68963 v -2.05013 h 1.78027 0.1949 c 0.513,0 0.77208,0.28157 0.77208,0.84331 v 1.20682 h 0.68587 v -1.34177 c 0,-0.52573 -0.2164,-0.8599 -0.6484,-1.00819 0.48149,-0.16177 0.72335,-0.61829 0.72335,-1.36424 0,-1.02457 -0.53312,-1.53666 -1.60411,-1.53666 z m 0.68963,0.62214 h 1.9077 c 0.38245,0 0.62957,0.0647 0.7421,0.19491 0.11245,0.1303 0.16868,0.41714 0.16868,0.86203 0,0.60215 -0.3699,0.90325 -1.11689,0.90325 h -1.70157 z m -19.15953,12.43571 a 5.4546743,5.4546743 0 0 0 -5.45326,5.45701 5.4546743,5.4546743 0 0 0 5.45326,5.45328 5.4546743,5.4546743 0 0 0 5.45327,-5.45328 5.4546743,5.4546743 0 0 0 -5.45327,-5.45701 z m -36.28765,11.20638 v 13.71748 h -7.47717 v 6.92623 h 7.47717 v 34.87842 c 0,4.09583 0.51894,7.29019 1.55915,9.58725 1.04021,2.29714 2.75463,3.93463 5.13843,4.90983 2.40548,0.97519 5.72124,1.4617 9.94707,1.4617 0.92131,0 1.79384,-0.0347 2.62732,-0.10113 v -7.1361 c -0.78234,0.11955 -1.64996,0.18365 -2.62732,0.18365 -3.25064,0 -5.39877,-0.61626 -6.43898,-1.8515 -1.0402,-1.25692 -1.55914,-3.60796 -1.55914,-7.05364 v -34.87843 h 10.76036 v -6.92622 h -10.76036 v -13.71748 z m -93.02788,12.64558 c -9.03678,0 -15.42919,3.19808 -19.17826,9.59101 -2.0154,-6.21957 -8.13628,-9.3324 -18.36496,-9.3324 -9.18847,0 -15.35385,3.11283 -18.49613,9.3324 v -8.51911 h -8.25674 v 57.11503 h 8.25674 V 441.8942 c 0,-6.13287 1.22416,-10.68111 3.67299,-13.65003 2.44881,-2.96893 6.68478,-4.45631 12.70931,-4.45631 3.83575,0 6.64087,0.36883 8.41789,1.10565 1.79869,0.73681 3.02285,2.00547 3.67299,3.80416 0.67179,1.77701 1.07306,4.49691 1.20309,8.15928 v 37.80559 h 8.81143 v -35.0096 c 0,-4.13918 0.44202,-7.29276 1.33053,-9.45983 1.14857,-2.44883 3.1632,-4.17157 6.04544,-5.16843 2.88223,-0.99685 5.97095,-1.49543 9.26492,-1.49543 4.94098,0 8.32159,0.89985 10.14197,2.69852 1.84202,1.79869 2.76223,5.11445 2.76223,9.94707 v 38.4877 h 8.65026 v -37.80559 c 0,-4.94097 -0.68485,-8.88503 -2.05013,-11.83227 -1.36525,-2.96892 -3.55412,-5.13743 -6.5664,-6.50269 -2.99058,-1.36527 -6.9995,-2.04638 -12.02717,-2.04638 z m 124.9904,1.0719 v 57.11503 h 8.64653 v -57.11503 z m -69.26212,5.98174 c 5.11433,0 8.81931,0.80254 11.11642,2.40619 2.31879,1.60365 3.72924,3.79252 4.22768,6.5664 0.5201,2.77388 0.77958,6.9774 0.77958,12.61186 0,5.04933 -0.18633,8.77843 -0.5547,11.18387 -0.49842,4.63759 -1.80784,7.74667 -3.9316,9.32866 -2.10208,1.58196 -5.58,2.37245 -10.43429,2.37245 -3.83577,0 -6.87998,-0.40125 -9.13375,-1.20308 -2.25379,-0.82348 -3.93578,-2.04768 -5.041,-3.67301 -1.08356,-1.64698 -1.78505,-3.6292 -2.1101,-5.94798 -0.32507,-2.31878 -0.48722,-5.49649 -0.48722,-9.5273 v -3.21574 c 0,-5.1577 0.3002,-9.14624 0.90699,-11.96345 0.62846,-2.83889 2.07135,-5.03611 4.32514,-6.59639 2.25377,-1.56032 5.69927,-2.34248 10.33685,-2.34248 z m -148.16772,58.13821 v 3.01709 h 256 v -3.01709 z m 39.81446,10.48302 c -4.36313,0 -7.20447,0.47738 -8.51908,1.42797 -1.12197,0.81478 -1.8009,1.74359 -2.03889,2.78472 -0.23799,1.02981 -0.35606,3.55349 -0.35606,7.57086 0,5.1377 0.52767,8.40147 1.58164,9.7934 1.05396,1.38061 3.5225,2.06886 7.4097,2.06886 4.34051,0 7.04892,-0.38851 8.12557,-1.16935 1.07662,-0.79217 1.61535,-2.76821 1.61535,-5.92551 v -0.88078 h -2.60108 l 0.0338,1.3755 c 0,1.95775 -0.38373,3.17888 -1.15436,3.66551 -0.75931,0.4866 -2.68179,0.73085 -5.76436,0.73085 -3.24122,0 -5.13781,-0.56251 -5.69312,-1.68285 -0.55532,-1.12032 -0.83206,-4.93178 -0.83206,-11.43873 0,-2.82914 0.41327,-4.55727 1.24059,-5.17967 0.82729,-0.62241 3.11136,-0.93324 6.85125,-0.93324 2.13059,0 3.49586,0.26643 4.09651,0.7983 0.61194,0.5319 0.91824,1.73082 0.91824,3.59804 l 0.0153,0.71212 h 2.60108 l -0.0153,-0.62591 c 0,-2.62545 -0.5166,-4.39796 -1.5479,-5.31461 -1.01998,-0.91662 -3.00884,-1.37548 -5.96675,-1.37548 z m 16.33357,0.23987 v 23.16983 h 14.90935 v -2.20754 h -12.29328 v -8.65777 h 11.78357 v -2.2038 h -11.78357 v -7.89318 h 12.29328 v -2.20754 z m 24.76272,0 v 23.16983 h 2.61981 v -9.38862 h 7.90442 0.86579 c 2.34592,0 3.51932,1.35438 3.51932,4.05902 v 5.3296 h 2.61981 v -5.92551 c 2e-5,-2.8065 -1.22872,-4.29774 -3.68797,-4.47881 v -0.0524 c 1.56394,-0.24896 2.62295,-0.79295 3.17826,-1.63036 0.5553,-0.84873 0.83204,-2.33999 0.83204,-4.47881 0,-2.43302 -0.5092,-4.14265 -1.52916,-5.12719 -1.01996,-0.98453 -2.77635,-1.47669 -5.26963,-1.47669 z m 26.09324,0 v 2.42492 h 7.56335 v 20.74491 h 2.61983 v -20.74491 h 7.4959 v -2.42492 z m 26.498,0 v 23.16983 h 2.61981 v -23.16983 z m 13.57882,0 v 23.16983 h 2.61983 V 504.901 h 11.3038 v -2.20754 h -11.3038 v -8.09557 h 11.61114 v -2.20754 z m 23.50714,0 v 23.16983 h 2.61983 v -23.16983 z m 12.64558,0 v 23.16983 h 14.90936 v -2.20754 h -12.28953 v -8.65777 h 11.7798 v -2.2038 h -11.7798 v -7.89318 h 12.28953 v -2.20754 z m 24.76648,0 v 23.16983 h 11.40499 c 3.13925,0 5.23144,-0.84372 6.27409,-2.52987 1.05394,-1.68618 1.58161,-5.04246 1.58161,-10.06701 0,-4.13046 -0.5904,-6.92432 -1.76902,-8.38416 -1.17864,-1.45982 -3.42951,-2.18879 -6.75006,-2.18879 z m -124.46945,2.20754 h 8.46662 c 1.76795,0 2.91548,0.3145 3.44812,0.94823 0.54399,0.63373 0.81705,1.9992 0.81705,4.09276 0,1.67484 -0.3616,2.81828 -1.08691,3.42937 -0.72531,0.59977 -2.08692,0.89951 -4.08151,0.89951 h -7.56337 z m 127.08551,0 h 8.09181 c 2.64058,0 4.30847,0.55874 4.99977,1.67908 0.70265,1.12034 1.05318,3.78467 1.05318,7.99437 0,3.83631 -0.40221,6.30818 -1.20685,7.4172 -0.80463,1.10902 -2.59426,1.6641 -5.37079,1.6641 h -7.56712 z" /></g></svg>
